<?xml version="1.0" encoding="UTF-8" standalone="no"?>
<!DOCTYPE svg PUBLIC "-//W3C//DTD SVG 1.1//EN" "http://www.w3.org/Graphics/SVG/1.1/DTD/svg11.dtd">
<svg version="1.1" xmlns="http://www.w3.org/2000/svg" xmlns:xlink="http://www.w3.org/1999/xlink" preserveAspectRatio="xMidYMid meet" viewBox="0 0 640 640" width="640" height="640"><defs><path d="M0 362.67C12.8 355.55 19.91 351.59 21.33 350.8C42.67 339.11 85.33 315.11 128 317.64C170.67 320 213.33 348.44 256 346.09C298.67 343.56 341.33 310.67 384 305.78C426.67 300.89 469.33 324.89 512 336.58C554.67 348.44 597.33 348.44 618.67 348.44C620.09 348.44 627.2 348.44 640 348.44L640 391.11C627.2 391.11 620.09 391.11 618.67 391.11C597.33 391.11 554.67 391.11 512 391.11C469.33 391.11 426.67 391.11 384 391.11C341.33 391.11 298.67 391.11 256 391.11C213.33 391.11 170.67 391.11 128 391.11C85.33 391.11 42.67 391.11 21.33 391.11C19.91 391.11 12.8 391.11 0 391.11L0 362.67Z" id="f4BRw2zquO"></path></defs><g><g><g><use xlink:href="#f4BRw2zquO" opacity="1" fill="#ffffff" fill-opacity="1"></use><g><use xlink:href="#f4BRw2zquO" opacity="1" fill-opacity="0" stroke="#6c63ff" stroke-width="3" stroke-opacity="1"></use></g></g></g></g></svg>