<?xml version="1.0" encoding="UTF-8" standalone="no"?>
<!DOCTYPE svg PUBLIC "-//W3C//DTD SVG 1.1//EN" "http://www.w3.org/Graphics/SVG/1.1/DTD/svg11.dtd">
<svg version="1.1" xmlns="http://www.w3.org/2000/svg" xmlns:xlink="http://www.w3.org/1999/xlink" preserveAspectRatio="xMidYMid meet" viewBox="0 0 640 640" width="40" height="40"><defs><path d="M0 320C0 496.73 143.27 640 320 640C496.73 640 640 496.73 640 320C640 143.27 496.73 0 320 0C143.27 0 0 143.27 0 320ZM396.81 543.3C396.58 543.1 396.36 542.9 396.14 542.7C373.28 522.13 190.42 357.55 167.57 336.98C158.19 328.53 157.43 314.08 165.88 304.7C166.41 304.11 166.98 303.55 167.57 303.02C190.42 282.45 373.28 117.87 396.14 97.3C405.35 88.67 419.81 89.14 428.45 98.36C437.08 107.57 436.6 122.03 427.39 130.66C427.17 130.87 426.95 131.07 426.72 131.27C412.75 143.85 342.89 206.76 217.14 320C342.89 433.24 412.75 496.15 426.72 508.73C436.27 516.99 437.31 531.43 429.05 540.97C420.79 550.52 406.36 551.56 396.81 543.3Z" id="bXXILfCjW"></path></defs><g><g><g><use xlink:href="#bXXILfCjW" opacity="1" fill="#ffffff" fill-opacity="1"></use><g><use xlink:href="#bXXILfCjW" opacity="1" fill-opacity="0" stroke="#000000" stroke-width="1" stroke-opacity="0"></use></g></g></g></g></svg>