<?xml version="1.0" encoding="UTF-8" standalone="no"?>
<!DOCTYPE svg PUBLIC "-//W3C//DTD SVG 1.1//EN" "http://www.w3.org/Graphics/SVG/1.1/DTD/svg11.dtd">
<svg version="1.1" xmlns="http://www.w3.org/2000/svg" xmlns:xlink="http://www.w3.org/1999/xlink" preserveAspectRatio="xMidYMid meet" viewBox="0 0 640 640" width="40" height="40"><defs><path d="M0 330C0 470.17 143.55 584.21 320 584.21C496.45 584.21 640 470.17 640 330C640 189.83 496.45 75.79 320 75.79C143.55 75.79 0 189.83 0 330ZM21.33 330C21.33 199.17 155.32 92.74 320 92.74C484.68 92.74 618.67 199.17 618.67 330C618.67 460.83 484.68 567.26 320 567.26C155.32 567.26 21.33 460.83 21.33 330Z" id="c89i6Hh9ff"></path><path d="M533.33 228.32C533.33 202.41 536.69 177.3 543.33 153.67C544.61 149.1 540.98 144.57 535.23 143.55C529.46 142.55 523.78 145.42 522.5 149.99C515.53 174.82 512 201.17 512 228.32C512 315.71 549.49 393.06 605.29 420.78C607.05 421.65 609 422.07 610.93 422.07C614.49 422.07 617.96 420.66 619.99 418.09C623.1 414.13 621.59 408.89 616.6 406.42C567.57 382.05 533.33 308.82 533.33 228.32Z" id="a274Km40cJ"></path><path d="M233.7 85.22C96.11 115.78 0 216.44 0 330C0 470.17 143.55 584.21 320 584.21C372.63 584.21 424.85 573.81 471.03 554.14C473.83 552.94 475.82 550.81 476.45 548.33C476.68 547.42 477.82 542.88 479.87 534.7C480.01 534.03 480.08 533.66 480.09 533.59C485.29 507.66 490.67 480.86 490.67 452.87C490.67 280.97 390.16 133.34 240.55 85.52C238.37 84.83 235.97 84.71 233.7 85.22ZM456.52 541.05C414.54 558.21 367.45 567.26 320 567.26C155.32 567.26 21.33 460.83 21.33 330C21.33 224.97 109.4 131.77 235.95 102.33C375.69 148.75 469.33 289.12 469.33 452.87C469.33 479.52 464.1 505.65 459.03 530.92C458.53 532.95 456.77 540.04 456.52 541.05Z" id="eeu4fEQVh"></path><path d="M187.15 492.37C182.2 489.82 175.59 490.93 172.38 494.86C169.17 498.78 170.57 504.02 175.51 506.58C198.42 518.4 220.13 527.02 241.89 532.91C243.03 533.22 244.19 533.37 245.33 533.37C249.77 533.37 253.92 531.15 255.42 527.64C257.32 523.21 254.35 518.39 248.77 516.88C228.7 511.44 208.55 503.43 187.15 492.37Z" id="a1HpM1rCq"></path><path d="M128.27 452.55C119.97 444.69 110.55 435.8 105.53 427.86C102.87 423.69 96.46 421.99 91.2 424.11C85.94 426.22 83.82 431.31 86.48 435.49C92.62 445.18 102.88 454.89 111.94 463.45C114.66 466.02 117.29 468.51 119.68 470.88C121.79 472.97 124.89 474.05 128.01 474.05C130.35 474.05 132.71 473.44 134.68 472.19C139.28 469.26 140.01 463.93 136.32 460.27C133.82 457.81 131.09 455.22 128.27 452.55Z" id="b2cuAHexRq"></path><path d="M22.67 408.81C18.27 411.92 17.88 417.27 21.79 420.77C23.89 422.65 26.83 423.61 29.76 423.61C32.28 423.61 34.81 422.9 36.84 421.47C133.6 353.06 313.19 272.18 618.46 274.19C618.51 274.19 618.54 274.19 618.57 274.19C624.41 274.19 629.18 270.45 629.24 265.79C629.29 261.12 624.56 257.29 618.67 257.25C306.4 255.27 122.23 338.41 22.67 408.81Z" id="c6fbt4qHzc"></path><path d="M87.36 160.29C81.44 160.2 76.48 163.68 76.2 168.36C75.92 173.02 80.46 177 86.35 177.22C89.91 177.36 93.48 177.47 97.08 177.47C238.24 177.47 353.08 285.81 353.08 418.97C353.08 478.27 334.96 530.76 300.67 570.75C297.35 574.63 298.61 579.9 303.49 582.53C305.32 583.52 307.41 584 309.48 584C312.9 584 316.25 582.7 318.32 580.3C355.01 537.47 374.41 481.69 374.41 418.97C374.41 276.46 250 160.53 97.08 160.53C93.82 160.53 90.59 160.42 87.36 160.29Z" id="a1Ygc0lpIq"></path></defs><g><g><g><use xlink:href="#c89i6Hh9ff" opacity="1" fill="#ffffff" fill-opacity="1"></use><g><use xlink:href="#c89i6Hh9ff" opacity="1" fill-opacity="0" stroke="#000000" stroke-width="1" stroke-opacity="0"></use></g></g><g><use xlink:href="#a274Km40cJ" opacity="1" fill="#ffffff" fill-opacity="1"></use><g><use xlink:href="#a274Km40cJ" opacity="1" fill-opacity="0" stroke="#000000" stroke-width="1" stroke-opacity="0"></use></g></g><g><use xlink:href="#eeu4fEQVh" opacity="1" fill="#ffffff" fill-opacity="1"></use><g><use xlink:href="#eeu4fEQVh" opacity="1" fill-opacity="0" stroke="#000000" stroke-width="1" stroke-opacity="0"></use></g></g><g><use xlink:href="#a1HpM1rCq" opacity="1" fill="#ffffff" fill-opacity="1"></use><g><use xlink:href="#a1HpM1rCq" opacity="1" fill-opacity="0" stroke="#000000" stroke-width="1" stroke-opacity="0"></use></g></g><g><use xlink:href="#b2cuAHexRq" opacity="1" fill="#ffffff" fill-opacity="1"></use><g><use xlink:href="#b2cuAHexRq" opacity="1" fill-opacity="0" stroke="#000000" stroke-width="1" stroke-opacity="0"></use></g></g><g><use xlink:href="#c6fbt4qHzc" opacity="1" fill="#ffffff" fill-opacity="1"></use><g><use xlink:href="#c6fbt4qHzc" opacity="1" fill-opacity="0" stroke="#000000" stroke-width="1" stroke-opacity="0"></use></g></g><g><use xlink:href="#a1Ygc0lpIq" opacity="1" fill="#ffffff" fill-opacity="1"></use><g><use xlink:href="#a1Ygc0lpIq" opacity="1" fill-opacity="0" stroke="#000000" stroke-width="1" stroke-opacity="0"></use></g></g></g></g></svg>