<?xml version="1.0" encoding="UTF-8" standalone="no"?>
<!DOCTYPE svg PUBLIC "-//W3C//DTD SVG 1.1//EN" "http://www.w3.org/Graphics/SVG/1.1/DTD/svg11.dtd">
<svg version="1.1" xmlns="http://www.w3.org/2000/svg" xmlns:xlink="http://www.w3.org/1999/xlink" preserveAspectRatio="xMidYMid meet" viewBox="0 0 640 640" width="40" height="40"><defs><path d="M500 443.53C496.71 443.53 493.49 444.54 491.16 446.3C488.84 448.05 487.5 450.49 487.5 452.97C487.5 455.45 488.84 457.89 491.16 459.64C493.49 461.41 496.71 462.41 500 462.41C503.29 462.41 506.51 461.41 508.84 459.64C511.16 457.89 512.5 455.45 512.5 452.97C512.5 450.49 511.16 448.05 508.84 446.3C506.51 444.54 503.29 443.53 500 443.53Z" id="i3SfSdda"></path><path d="M50 90.53C22.43 90.53 0 107.46 0 128.27C0 157.91 0 395.03 0 424.66C0 445.48 22.43 462.41 50 462.41C63.08 462.41 128.5 462.41 246.25 462.41C246.25 490.83 246.25 506.62 246.25 509.78C209.59 512.48 180.83 535.87 180.83 564.25C180.83 569.46 186.43 573.68 193.33 573.68C218.67 573.68 421.33 573.68 446.67 573.68C453.57 573.68 459.17 569.46 459.17 564.25C459.17 535.23 429.1 511.43 391.25 509.64C391.25 506.49 391.25 490.75 391.25 462.41C426.25 462.41 445.7 462.41 449.59 462.41C456.49 462.41 462.09 458.19 462.09 452.97C462.09 447.76 456.49 443.54 449.59 443.54C409.63 443.54 89.96 443.54 50 443.54C36.22 443.54 25 435.07 25 424.66C25 395.03 25 157.91 25 128.27C25 117.87 36.22 109.4 50 109.4C104 109.4 536 109.4 590 109.4C603.79 109.4 615 117.87 615 128.27C615 157.91 615 395.03 615 424.66C615 435.07 603.79 443.54 590 443.54C585.33 443.54 548 443.54 543.33 443.54C536.43 443.54 530.83 447.76 530.83 452.97C530.83 458.19 536.43 462.41 543.33 462.41C548 462.41 585.33 462.41 590 462.41C617.57 462.41 640 445.48 640 424.66C640 395.03 640 157.91 640 128.27C640 107.46 617.57 90.53 590 90.53C482 90.53 104 90.53 50 90.53ZM366.25 462.41L366.25 509.52L271.25 509.52L271.25 462.41L366.25 462.41ZM432.5 554.81C410 554.81 230 554.81 207.5 554.81C213 539.6 231.47 528.39 253.33 528.39C262.22 528.39 306.67 528.39 386.67 528.39C413.55 535.86 428.83 544.67 432.5 554.81Z" id="d2GCJgA4zs"></path><path d="M318.75 413.34C315.46 413.34 312.24 414.35 309.91 416.1C307.59 417.86 306.25 420.29 306.25 422.77C306.25 425.27 307.59 427.69 309.91 429.45C312.24 431.21 315.46 432.21 318.75 432.21C322.04 432.21 325.26 431.21 327.59 429.45C329.91 427.69 331.25 425.27 331.25 422.77C331.25 420.29 329.91 417.86 327.59 416.1C325.26 414.35 322.04 413.34 318.75 413.34Z" id="d52veRbd5d"></path><path d="M243.99 217.28C248.87 213.59 248.87 207.62 243.99 203.93C239.11 200.25 231.2 200.25 226.31 203.93C219.3 209.22 163.24 251.55 156.23 256.84C151.35 260.53 151.35 266.5 156.23 270.19C163.24 275.48 219.3 317.8 226.31 323.1C228.75 324.94 231.95 325.86 235.15 325.86C238.35 325.86 241.55 324.94 243.99 323.1C248.87 319.41 248.87 313.43 243.99 309.75C239.91 306.67 219.49 291.26 182.75 263.51C219.49 235.77 239.91 220.36 243.99 217.28Z" id="h57m9kFH6C"></path><path d="M413.69 203.93C408.8 200.25 400.89 200.25 396.01 203.93C391.13 207.62 391.13 213.59 396.01 217.28C400.09 220.36 420.51 235.77 457.25 263.51C420.51 291.26 400.09 306.67 396.01 309.75C391.13 313.43 391.13 319.41 396.01 323.1C398.45 324.94 401.65 325.86 404.85 325.86C408.05 325.86 411.25 324.94 413.69 323.1C420.69 317.8 476.76 275.48 483.77 270.19C488.65 266.5 488.65 260.53 483.77 256.84C469.75 246.26 420.69 209.22 413.69 203.93Z" id="d1tDJQ9kPa"></path><path d="M326.64 211.88C322.89 222.43 292.96 306.78 289.21 317.32C287.43 322.35 291.39 327.53 298.05 328.88C299.14 329.1 300.23 329.2 301.3 329.2C306.82 329.2 311.87 326.42 313.36 322.21C317.1 311.66 347.04 227.31 350.79 216.77C352.57 211.73 348.62 206.56 341.95 205.21C335.28 203.86 328.42 206.85 326.64 211.88Z" id="a77vdbWnsd"></path><path d="M378.75 128.35C371.85 128.35 366.25 132.58 366.25 137.79C366.25 143 371.85 147.23 378.75 147.23C391.17 147.23 453.25 147.23 565 147.23L565 383.14L75 383.14L75 147.23C190.13 147.23 254.08 147.23 266.88 147.23C273.78 147.23 279.38 143 279.38 137.79C279.38 132.58 273.78 128.35 266.88 128.35C246.44 128.35 82.94 128.35 62.5 128.35C55.6 128.35 50 132.58 50 137.79C50 163.27 50 367.1 50 392.58C50 397.79 55.6 402.02 62.5 402.02C114 402.02 526 402.02 577.5 402.02C584.4 402.02 590 397.79 590 392.58C590 367.1 590 163.27 590 137.79C590 132.58 584.4 128.35 577.5 128.35C537.75 128.35 398.63 128.35 378.75 128.35Z" id="fr4sCpwdz"></path><path d="M322.5 128.35C319.21 128.35 315.99 129.36 313.66 131.11C311.34 132.87 310 135.3 310 137.79C310 140.27 311.34 142.7 313.66 144.47C315.99 146.22 319.21 147.22 322.5 147.22C325.79 147.22 329.01 146.22 331.34 144.47C333.66 142.7 335 140.28 335 137.79C335 135.3 333.66 132.87 331.34 131.11C329.01 129.36 325.79 128.35 322.5 128.35Z" id="a1klKuw54P"></path></defs><g><g><g><use xlink:href="#i3SfSdda" opacity="1" fill="#ffffff" fill-opacity="1"></use><g><use xlink:href="#i3SfSdda" opacity="1" fill-opacity="0" stroke="#000000" stroke-width="1" stroke-opacity="0"></use></g></g><g><use xlink:href="#d2GCJgA4zs" opacity="1" fill="#ffffff" fill-opacity="1"></use><g><use xlink:href="#d2GCJgA4zs" opacity="1" fill-opacity="0" stroke="#000000" stroke-width="1" stroke-opacity="0"></use></g></g><g><use xlink:href="#d52veRbd5d" opacity="1" fill="#ffffff" fill-opacity="1"></use><g><use xlink:href="#d52veRbd5d" opacity="1" fill-opacity="0" stroke="#000000" stroke-width="1" stroke-opacity="0"></use></g></g><g><use xlink:href="#h57m9kFH6C" opacity="1" fill="#ffffff" fill-opacity="1"></use><g><use xlink:href="#h57m9kFH6C" opacity="1" fill-opacity="0" stroke="#000000" stroke-width="1" stroke-opacity="0"></use></g></g><g><use xlink:href="#d1tDJQ9kPa" opacity="1" fill="#ffffff" fill-opacity="1"></use><g><use xlink:href="#d1tDJQ9kPa" opacity="1" fill-opacity="0" stroke="#000000" stroke-width="1" stroke-opacity="0"></use></g></g><g><use xlink:href="#a77vdbWnsd" opacity="1" fill="#ffffff" fill-opacity="1"></use><g><use xlink:href="#a77vdbWnsd" opacity="1" fill-opacity="0" stroke="#000000" stroke-width="1" stroke-opacity="0"></use></g></g><g><use xlink:href="#fr4sCpwdz" opacity="1" fill="#ffffff" fill-opacity="1"></use><g><use xlink:href="#fr4sCpwdz" opacity="1" fill-opacity="0" stroke="#000000" stroke-width="1" stroke-opacity="0"></use></g></g><g><use xlink:href="#a1klKuw54P" opacity="1" fill="#ffffff" fill-opacity="1"></use><g><use xlink:href="#a1klKuw54P" opacity="1" fill-opacity="0" stroke="#000000" stroke-width="1" stroke-opacity="0"></use></g></g></g></g></svg>