<?xml version="1.0" encoding="UTF-8" standalone="no"?>
<!DOCTYPE svg PUBLIC "-//W3C//DTD SVG 1.1//EN" "http://www.w3.org/Graphics/SVG/1.1/DTD/svg11.dtd">
<svg version="1.1" xmlns="http://www.w3.org/2000/svg" xmlns:xlink="http://www.w3.org/1999/xlink" preserveAspectRatio="xMidYMid meet" viewBox="0 0 640 640" width="25" height="25"><defs><path d="M320 20.53C143.25 20.53 0 154.59 0 320C0 485.41 143.25 619.47 320 619.47C321.88 619.47 323.75 619.47 325.63 619.36C325.63 603.82 325.63 526.15 325.63 386.33L256.88 386.33L256.88 311.34L325.63 311.34C325.63 278.21 325.63 259.81 325.63 256.13C325.63 192.14 367.38 157.28 428.38 157.28C457.62 157.28 482.75 159.27 490 160.2C490 164.66 490 186.97 490 227.12C464.8 227.12 450.8 227.12 448 227.12C414.88 227.12 408.38 241.86 408.38 263.5C408.38 266.68 408.38 282.59 408.38 311.23L487.75 311.23L477.38 386.21L408.38 386.21C408.38 519.22 408.38 593.11 408.38 607.89C542.13 571.98 640 456.75 640 320C640 154.59 496.75 20.53 320 20.53Z" id="f1eUUjQHkS"></path></defs><g><g><g><use xlink:href="#f1eUUjQHkS" opacity="1" fill="#ffffff" fill-opacity="1"></use><g><use xlink:href="#f1eUUjQHkS" opacity="1" fill-opacity="0" stroke="#000000" stroke-width="1" stroke-opacity="0"></use></g></g></g></g></svg>