<?xml version="1.0" encoding="UTF-8" standalone="no"?>
<!DOCTYPE svg PUBLIC "-//W3C//DTD SVG 1.1//EN" "http://www.w3.org/Graphics/SVG/1.1/DTD/svg11.dtd">
<svg version="1.1" xmlns="http://www.w3.org/2000/svg" xmlns:xlink="http://www.w3.org/1999/xlink" preserveAspectRatio="xMidYMid meet" viewBox="0 0 640 640" width="100" height="100"><defs><path d="M625.93 0.04C551.69 9.69 478.81 27.85 408.73 54.17C405.55 55.35 402.93 57.69 401.42 60.73C400.2 63.18 394.07 75.44 383.05 97.5C374.89 89.36 370.36 84.83 369.45 83.93C365.33 79.81 359.01 78.85 353.85 81.55C314.45 100.75 277.29 124.22 243.04 151.55C231.83 170.02 224.27 190.46 220.77 211.78C219.89 210.01 212.81 195.82 211.92 194.05C208.63 187.47 200.62 184.8 194.03 188.09C193.01 188.6 192.06 189.24 191.2 190C185.87 194.61 63.48 304.33 121.18 432.13C133.35 461.94 162.96 480.86 195.12 479.38C196.69 479.38 198.27 479.38 199.89 479.38C302.44 475.06 462.75 331.08 479.23 284.52C481.67 277.57 478.02 269.96 471.07 267.52C470.68 267.38 470.27 267.26 469.87 267.16C466.9 266.42 452.08 262.71 425.39 256.02C483.45 246.42 515.71 241.09 522.16 240.02C526.37 239.32 529.99 236.64 531.89 232.82C542.56 211.49 627.88 40.84 638.55 19.51C640.73 15.22 640.44 10.08 637.77 6.07C635.21 2.07 630.68 -0.24 625.93 0.04Z" id="f2n7Vftquc"></path><path d="M0 626.67C0 624.36 0.59 622.1 1.72 620.09C118.33 413.92 210.4 251.11 447.42 134.72C454.04 131.47 462.05 134.21 465.29 140.84C468.54 147.47 465.8 155.47 459.17 158.72C229.52 271.46 139.21 431.12 24.95 633.34C22.55 637.47 18.13 640 13.35 639.98C5.99 639.99 0.01 634.03 0 626.67Z" id="b1ynlGrDSF"></path></defs><g><g><g><use xlink:href="#f2n7Vftquc" opacity="1" fill="#cfd8dc" fill-opacity="1"></use><g><use xlink:href="#f2n7Vftquc" opacity="1" fill-opacity="0" stroke="#ffffff" stroke-width="2" stroke-opacity="1"></use></g></g><g><use xlink:href="#b1ynlGrDSF" opacity="1" fill="#ffffff" fill-opacity="1"></use><g><use xlink:href="#b1ynlGrDSF" opacity="1" fill-opacity="0" stroke="#000000" stroke-width="1" stroke-opacity="0"></use></g></g></g></g></svg>