<?xml version="1.0" encoding="UTF-8" standalone="no"?>
<!DOCTYPE svg PUBLIC "-//W3C//DTD SVG 1.1//EN" "http://www.w3.org/Graphics/SVG/1.1/DTD/svg11.dtd">
<svg version="1.1" xmlns="http://www.w3.org/2000/svg" xmlns:xlink="http://www.w3.org/1999/xlink" preserveAspectRatio="xMidYMid meet" viewBox="0 0 640 640" width="40" height="40"><defs><path d="M226.4 245.83C210.32 245.64 197.03 256.98 196.75 271.18C196.67 275.76 200.79 279.53 205.97 279.61C206.02 279.61 206.08 279.61 206.13 279.61C211.23 279.61 215.41 275.99 215.5 271.46C215.6 266.39 220.31 262.32 226.1 262.41C228.99 262.45 231.66 263.51 233.61 265.39C237.1 268.78 243.04 269.01 246.86 265.92C250.68 262.84 250.95 257.59 247.46 254.21C242.06 248.99 234.39 245.94 226.4 245.83Z" id="ecX23MkVs"></path><path d="M281.98 268.3C268.14 263.78 252.71 270.05 247.58 282.28C245.78 286.58 248.25 291.35 253.11 292.94C254.18 293.29 255.28 293.46 256.37 293.46C260.18 293.46 263.76 291.39 265.16 288.05C266.7 284.38 271.34 282.5 275.49 283.85C277.58 284.53 279.21 285.91 280.08 287.72C282.1 291.93 287.61 293.9 292.37 292.1C297.14 290.31 299.36 285.44 297.33 281.23C294.46 275.26 288.87 270.54 281.98 268.3Z" id="a2mU5HIOTo"></path><path d="M344.5 207.81C343.61 208.6 336.54 214.86 335.66 215.65C332 218.89 332.01 224.14 335.67 227.37C337.5 228.98 339.9 229.79 342.3 229.79C344.7 229.79 347.1 228.98 348.93 227.36C349.82 226.57 356.89 220.31 357.77 219.53C361.43 216.29 361.42 211.04 357.76 207.8C354.09 204.57 348.15 204.57 344.5 207.81Z" id="a2Fb2NlOV"></path><path d="M286.94 314.83C281.76 314.83 277.56 318.55 277.56 323.13C277.56 327.7 281.76 331.42 286.94 331.42C288.18 331.42 298.18 331.42 299.43 331.42C304.61 331.42 308.81 327.7 308.81 323.13C308.81 318.55 304.61 314.83 299.43 314.83C296.93 314.83 288.18 314.83 286.94 314.83Z" id="bKyviAoN"></path><path d="M382.74 314.83C377.56 314.83 373.36 318.55 373.36 323.13C373.36 327.7 377.56 331.42 382.74 331.42C383.99 331.42 393.99 331.42 395.23 331.42C400.41 331.42 404.61 327.7 404.61 323.13C404.61 318.55 400.41 314.83 395.23 314.83C392.74 314.83 383.99 314.83 382.74 314.83Z" id="b1gQ9Nz6wH"></path><path d="M637.26 452.67C635.7 445.23 628.35 439.82 619.78 439.82C618.7 439.82 617.61 439.91 616.55 440.08C613.23 440.62 596.67 443.31 566.85 448.16C580.35 440.17 587.85 435.74 589.35 434.85C595.25 431.36 598.23 425.13 596.95 418.94C596.59 417.25 595.92 415.62 594.95 414.1C594.27 413.03 588.82 404.5 588.14 403.43C585.81 399.77 581.83 397.04 577.23 395.96C574.98 395.43 572.63 395.32 570.33 395.58C572.84 383.35 574.13 370.85 574.13 358.14C574.13 352.49 570.3 347.64 564.81 345.48C571.98 330.41 572.47 313.17 565.39 297.37C564.81 296.09 563.96 294.94 562.86 293.97C561.76 293 560.48 292.25 559.03 291.73C550.54 288.74 541.63 287.23 532.52 287.23C531.36 287.23 530.2 287.26 529.05 287.31C527.75 264.17 506.09 245.69 479.65 245.69C476.17 245.69 472.78 246.02 469.5 246.63C471.78 234.58 470.44 221.98 465.13 210.14C464.56 208.84 463.7 207.67 462.54 206.63C461.42 205.64 460.11 204.87 458.65 204.36C449.51 201.14 439.9 199.51 430.1 199.51C415.33 199.51 401.2 203.18 389 210.01C384.55 198.59 377.2 187.88 366.93 178.78C363.92 176.11 359.92 174.64 355.67 174.64C351.41 174.64 347.41 176.11 344.4 178.78C339.86 182.8 303.55 214.99 299.01 219.01C290.61 212.38 279.56 208.42 267.56 208.42C264.84 208.42 262.09 208.63 259.39 209.05C249.61 210.56 240.61 214.79 233.71 220.99C224.87 217.21 214.73 215.93 204.99 217.42C202.85 217.75 200.77 218.22 198.75 218.78C198.75 215.68 198.75 190.88 198.75 187.78C198.75 166.43 179.35 149.03 155.35 148.66C155.35 146.9 155.35 132.84 155.35 131.08C162.7 129.96 168.31 124.29 168.31 117.48C168.31 113.5 168.31 81.62 168.31 77.64C168.31 70.02 161.3 63.82 152.68 63.82C145.06 63.82 84.07 63.82 76.44 63.82C67.83 63.82 60.82 70.02 60.82 77.64C60.82 81.62 60.82 113.5 60.82 117.48C60.82 124.29 66.43 129.96 73.77 131.08C73.77 132.84 73.77 146.9 73.77 148.66C49.77 149.03 30.37 166.43 30.37 187.78C30.37 211.98 30.37 405.56 30.37 429.75C11.65 444.7 0 465.56 0 488.63C0 534 45.03 570.91 100.38 570.91C137.91 570.9 438.09 570.83 475.62 570.82C488.42 570.81 500.47 565.83 508.66 557.16C516.64 548.72 520.03 537.75 518.08 526.94C525.57 528.13 585.53 537.66 593.02 538.85C594.06 539.01 595.12 539.1 596.18 539.1C599.92 539.1 603.5 538.08 606.53 536.16C610.43 533.7 613.07 529.89 613.77 525.71C613.97 524.5 615.6 514.87 615.8 513.66C616.09 511.94 616.06 510.2 615.7 508.49C614.41 502.33 609.11 497.45 602.19 496.05C600.43 495.69 591.62 493.9 575.78 490.69C605.57 485.85 622.12 483.16 625.43 482.62C630.11 481.86 634.17 479.54 636.87 476.07C639.56 472.62 640.56 468.45 639.7 464.33C639.21 461.99 637.5 453.84 637.26 452.67ZM549.05 306.16C553.82 319 552.03 332.84 544.57 344.28C542.89 344.28 534.47 344.28 519.31 344.28C524.15 340 526.84 337.62 527.37 337.14C531.03 333.9 531.02 328.65 527.36 325.41C523.69 322.18 517.75 322.18 514.1 325.43C513.67 325.8 510.26 328.83 509.84 329.21C507.84 323.39 504.35 318.18 499.76 313.9C509.06 307.37 520.49 303.81 532.52 303.81C538.17 303.81 543.72 304.6 549.05 306.16ZM510.36 289.51C510.36 289.78 510.34 290.06 510.34 290.34C500.45 293.18 491.34 297.93 483.58 304.37C482.34 303.96 481.09 303.57 479.8 303.26C477.06 290.16 467.07 279.66 453.88 274.75C459.36 267.25 468.85 262.27 479.65 262.27C496.59 262.27 510.36 274.49 510.36 289.51ZM448.75 218.8C453.6 231.54 452.61 245.23 446.43 257.09C441.36 261.18 437.24 266.19 434.42 271.82C432.75 271.9 431.08 272.07 429.42 272.32C422.08 273.45 415.23 276.27 409.49 280.36C407.54 277.2 405.15 274.28 402.4 271.65C404.55 269.75 421.75 254.5 423.9 252.6C427.56 249.36 427.55 244.11 423.89 240.87C420.22 237.64 414.28 237.64 410.63 240.89C408.28 242.97 389.48 259.63 387.13 261.71C382.66 259.84 377.83 258.54 372.75 257.94C374.94 248.04 380.37 238.72 388.77 231.28C399.82 221.48 414.49 216.09 430.1 216.09C436.47 216.09 442.72 217 448.75 218.8ZM350.13 344.28C348.77 341.2 345.38 339.02 341.41 339.02C337.44 339.02 334.06 341.2 332.69 344.28C331.74 344.28 324.09 344.28 323.13 344.28C325.35 341.09 324.9 336.85 321.77 334.08C318.11 330.85 312.17 330.85 308.51 334.1C307.63 334.88 300.56 341.14 299.68 341.93C298.88 342.63 298.27 343.43 297.82 344.28C295.91 344.28 280.65 344.28 278.74 344.28C271.6 334.58 267.23 323.14 266.72 310.82C281.59 310.82 400.58 310.82 415.45 310.82C414.93 323.14 410.57 334.58 403.43 344.28C401.44 344.28 385.56 344.28 383.57 344.28C383.12 343.43 382.51 342.63 381.72 341.93C380.83 341.14 373.77 334.88 372.88 334.09C369.22 330.85 363.29 330.85 359.62 334.08C356.49 336.85 356.04 341.08 358.26 344.28C356.64 344.28 350.95 344.28 350.13 344.28ZM366.09 274.11C380.25 274.11 392.2 282.66 395.73 294.24C391.78 294.24 372.02 294.24 336.46 294.24C346.78 280.82 356.66 274.11 366.09 274.11ZM373.33 221.58C368.55 226.18 364.57 231.26 361.43 236.67C360.01 235.9 358.34 235.44 356.55 235.44C355.3 235.44 345.31 235.44 344.06 235.44C338.88 235.44 334.68 239.16 334.68 243.73C334.68 248.31 338.88 252.03 344.06 252.03C345.15 252.03 353.92 252.03 355.02 252.03C354.4 254.31 353.92 256.63 353.57 258.97C349.85 259.83 346.3 261.06 342.97 262.63C336.72 253.09 326.37 245.99 314.11 243.14C314.11 243.11 314.11 243.09 314.1 243.07C313.37 239.31 312.08 235.75 310.33 232.45C313.35 229.77 328.45 216.39 355.63 192.3C365.5 204.73 371.41 214.49 373.33 221.58ZM184.92 262.95C182.23 249.25 192.68 236.15 208.21 233.76C209.84 233.51 211.51 233.38 213.15 233.38C219.33 233.38 225.23 235.12 230.22 238.42C232.28 239.78 234.89 240.33 237.43 239.94C239.97 239.55 242.22 238.25 243.64 236.35C248.04 230.48 254.78 226.59 262.6 225.38C264.24 225.13 265.91 225 267.56 225C281.45 225 293.25 233.79 295.63 245.9C295.9 247.29 296.04 248.73 296.04 250.2C296.05 254.49 299.76 258.07 304.6 258.44C315.08 259.26 324 265.09 328.13 273.31C322.6 279.19 318.76 286.36 317.3 294.24C311.95 294.24 269.18 294.24 263.84 294.24C257.19 294.24 251.49 297.87 249.11 303.01C237.34 295.92 223.48 292.1 208.95 292.1C199.85 292.1 190.94 293.62 182.45 296.61C181.01 297.12 179.72 297.87 178.62 298.84C177.51 299.82 176.66 300.98 176.1 302.24C173.94 307.05 172.5 312 171.72 316.98C168.36 313.59 165.99 309.39 165.07 304.67C162.86 293.42 169.52 282.22 181.26 277.43C185.67 275.63 187.79 271.15 186.16 267.11C185.61 265.75 185.19 264.35 184.92 262.95ZM216.66 344.28C203.15 344.28 195.65 344.28 194.15 344.28C189.09 333.91 188.32 322.11 192.43 311.03C197.77 309.47 203.32 308.69 208.95 308.69C223.08 308.69 236.37 313.57 246.37 322.43C247.7 323.61 248.94 324.85 250.1 326.12C251.69 332.49 254.13 338.56 257.28 344.28C256.34 344.28 251.63 344.28 243.15 344.28C233.69 335.89 228.43 331.23 227.38 330.3C223.72 327.06 217.78 327.05 214.12 330.29C210.45 333.52 210.45 338.77 214.1 342.02C214.45 342.32 215.3 343.07 216.66 344.28ZM140.76 344.28C142.25 336.25 147.71 329.41 155.29 325.37C159.78 330.69 165.64 334.99 172.39 337.9C172.87 340.05 173.45 342.18 174.18 344.28C167.5 344.28 144.1 344.28 140.76 344.28ZM149.56 80.4L149.56 114.72L79.57 114.72L79.57 80.4L149.56 80.4ZM136.6 148.64L92.53 148.64L92.53 131.3L136.6 131.3L136.6 148.64ZM110 221.4C115.18 221.4 119.37 217.69 119.37 213.11C119.37 208.53 115.18 204.82 110 204.82C105.94 204.82 85.65 204.82 49.12 204.82C49.12 194.6 49.12 188.91 49.12 187.78C49.12 175.34 60.53 165.23 74.54 165.23C82.55 165.23 146.58 165.23 154.58 165.23C168.6 165.23 180 175.34 180 187.78C180 188.91 180 194.6 180 204.82C169.5 204.82 163.67 204.82 162.5 204.82C157.32 204.82 153.12 208.53 153.12 213.11C153.12 217.69 157.32 221.4 162.5 221.4C163.67 221.4 169.5 221.4 180 221.4C180 225.82 180 228.27 180 228.76C169.26 238.07 163.68 251.73 166.44 265.78C166.44 265.81 166.45 265.84 166.46 265.87C151.42 274.99 143.4 291.21 146.59 307.5C146.78 308.45 147.01 309.39 147.27 310.31C142.58 312.6 138.38 315.54 134.77 319C129.06 319 100.51 319 49.12 319L49.12 221.4C85.65 221.4 105.94 221.4 110 221.4ZM49.12 335.58C93.98 335.58 118.9 335.58 123.89 335.58C122.89 338.37 122.19 341.28 121.85 344.28C121.69 344.28 120.43 344.28 120.27 344.28C111.64 344.28 104.62 350.5 104.62 358.13C104.62 371.3 106 384.22 108.68 396.87C105.99 396.67 103.23 396.57 100.42 396.57C89.08 396.57 78.28 398.16 70 401.05C57.35 405.47 53.85 411.75 53.08 416.09C51.74 416.68 50.42 417.3 49.12 417.94C49.12 412.45 49.12 384.99 49.12 335.58L49.12 335.58ZM174.47 443.31C174.36 443.31 174.24 443.31 174.12 443.31C168.81 443.31 159.28 441.42 148.44 436.11C144.4 434.14 140.68 431.9 137.68 429.65C134.19 427.03 129.06 427.03 125.56 429.65C122.56 431.9 118.85 434.14 114.81 436.11C103.97 441.42 94.44 443.31 89.13 443.31C89.01 443.31 88.89 443.31 88.78 443.31C89.97 441.84 92.04 439.81 95.42 437.42C98.37 435.33 99.61 431.88 98.57 428.67C97.53 425.45 94.4 423.11 90.65 422.72C81.5 421.77 75.71 419.71 73.01 418.21C76.4 416.34 84.98 413.15 100.42 413.15C113.21 413.15 122.55 415.53 127.04 417.76C129.89 419.17 133.36 419.17 136.21 417.76C140.7 415.53 150.05 413.15 162.83 413.15C178.28 413.15 186.85 416.34 190.25 418.21C187.54 419.71 181.75 421.77 172.6 422.72C168.85 423.11 165.72 425.45 164.68 428.67C163.64 431.88 164.88 435.34 167.83 437.42C171.21 439.81 173.27 441.84 174.47 443.31ZM149.4 539.87C150.52 545.2 152.87 550.08 156.15 554.33C150.58 554.33 105.96 554.33 100.38 554.33C55.37 554.33 18.75 524.86 18.75 488.63C18.75 463.87 35.86 442.27 61.05 431.07C63.95 432.98 67.56 434.63 71.84 435.96C70.14 438.52 68.96 441.28 68.68 444.15C68.31 447.98 69.63 451.61 72.4 454.38C76.07 458.04 81.7 459.89 89.13 459.89C99.04 459.89 112.03 456.43 123.89 450.62C126.63 449.28 129.21 447.87 131.63 446.4C134.04 447.87 136.62 449.28 139.36 450.62C151.22 456.43 164.22 459.89 174.12 459.89C174.12 459.89 174.12 459.89 174.12 459.89C181.55 459.89 187.18 458.04 190.84 454.38C193.62 451.61 194.94 447.98 194.57 444.15C194.29 441.28 193.11 438.52 191.41 435.96C195.69 434.63 199.3 432.98 202.2 431.07C222.18 439.95 237.07 455.37 242.38 473.73C235.74 475.96 182.7 493.78 176.07 496C156.66 502.53 145.31 520.33 149.08 538.34C149.14 538.64 149.37 539.72 149.4 539.87ZM475.61 554.24C474.95 554.24 471.67 554.24 465.77 554.24C462.08 536.63 460.03 526.84 459.62 524.88C458.68 520.38 453.79 517.4 448.69 518.24C443.6 519.08 440.24 523.4 441.18 527.9C441.55 529.66 443.39 538.44 446.7 554.24L414.44 554.26C411.95 542.35 410.56 535.73 410.29 534.41C409.34 529.9 404.45 526.93 399.36 527.76C394.27 528.6 390.91 532.92 391.85 537.42C392.08 538.55 393.26 544.16 395.37 554.26L320.34 554.29C316.95 538.11 315.07 529.13 314.7 527.33C313.75 522.83 308.86 519.85 303.77 520.69C298.68 521.52 295.32 525.85 296.26 530.35C296.59 531.95 298.26 539.93 301.27 554.29C235.54 554.32 199.02 554.33 191.72 554.33C191.72 554.33 191.71 554.33 191.71 554.33C180 554.33 169.96 546.98 167.83 536.85C167.8 536.69 167.54 535.47 167.51 535.31C165.39 525.19 171.79 515.18 182.72 511.5C185.18 510.68 197.46 506.55 219.57 499.13C221.22 506.99 222.13 511.35 222.32 512.23C223.15 516.22 227.09 519.01 231.52 519.01C232.09 519.01 232.66 518.96 233.24 518.87C238.33 518.03 241.69 513.71 240.75 509.21C240.53 508.13 239.4 502.78 237.38 493.14C270.2 482.12 288.43 475.99 292.08 474.77C296.92 473.14 299.35 468.35 297.51 464.07C295.67 459.79 290.25 457.64 285.42 459.26C282.88 460.12 262.51 466.96 259.97 467.82C252.83 445.46 234.49 426.79 210.16 416.09C209.4 411.75 205.9 405.47 193.25 401.05C184.97 398.16 174.17 396.57 162.83 396.57C155.03 396.57 147.58 397.33 141 398.72C141 398.22 141 394.21 141 393.71C141 389.13 136.8 385.42 131.63 385.42C129.44 385.42 127.43 386.09 125.83 387.2C124.35 378.55 123.53 369.77 123.39 360.86C153.93 360.86 398.21 360.86 428.75 360.86C433.93 360.86 438.12 357.15 438.12 352.57C438.12 347.99 433.93 344.28 428.75 344.28C428.36 344.28 425.3 344.28 424.91 344.28C430.88 333.41 434.25 321.22 434.25 308.33C434.25 301.02 427.93 294.99 419.86 294.31C423.37 291.38 427.75 289.41 432.64 288.65C434.07 288.43 435.52 288.32 436.96 288.32C449.06 288.32 459.35 295.98 461.41 306.53C461.65 307.75 461.77 309.01 461.78 310.27C461.78 314.57 465.49 318.15 470.33 318.52C481.53 319.39 490.7 326.84 492.62 336.64C493.13 339.25 493.07 341.82 492.56 344.28C491.55 344.28 483.5 344.28 482.5 344.28C477.32 344.28 473.12 347.99 473.12 352.57C473.12 357.15 477.32 360.86 482.5 360.86C489.78 360.86 548.08 360.86 555.36 360.86C555.13 376.07 552.92 390.93 548.78 405.34C543.7 407.99 503.06 429.21 497.98 431.86C494.87 422.3 487.65 414.19 477.7 409.26C466.53 403.74 453.27 402.87 441.31 406.89C430.84 410.41 347.13 438.53 336.67 442.05C331.83 443.67 329.4 448.46 331.23 452.74C333.07 457.02 338.49 459.17 343.33 457.55C344.25 457.24 348.84 455.7 357.11 452.92C359.68 465.18 361.11 471.99 361.39 473.35C362.23 477.35 366.17 480.14 370.6 480.14C371.17 480.14 371.74 480.09 372.32 480C377.41 479.16 380.77 474.84 379.83 470.33C379.5 468.77 377.87 460.97 374.93 446.93C418.75 432.21 443.1 424.03 447.96 422.4C454.73 420.12 462.23 420.61 468.54 423.73C474.84 426.85 479.2 432.22 480.51 438.47C482.4 447.52 497.58 519.97 499.47 529.02C500.78 535.27 498.89 541.65 494.27 546.53C489.65 551.43 482.84 554.23 475.61 554.24ZM520.04 489.61C519.94 493.54 522.98 496.99 527.32 497.87C531.97 498.81 555.24 503.53 597.12 512.03L595.37 522.37L514.46 509.51L501.81 449.12L572.29 412.33L578.16 421.52C542.49 442.61 522.67 454.32 518.71 456.66C515.02 458.85 513.56 463.03 515.24 466.67C516.91 470.32 521.24 472.42 525.62 471.71C531.84 470.7 562.97 465.64 619 456.54L621.08 466.47L527.72 481.64C522.67 484.33 520.11 486.99 520.04 489.61Z" id="e8HEj0BS9"></path></defs><g><g><g><use xlink:href="#ecX23MkVs" opacity="1" fill="#ffffff" fill-opacity="1"></use><g><use xlink:href="#ecX23MkVs" opacity="1" fill-opacity="0" stroke="#000000" stroke-width="1" stroke-opacity="0"></use></g></g><g><use xlink:href="#a2mU5HIOTo" opacity="1" fill="#ffffff" fill-opacity="1"></use><g><use xlink:href="#a2mU5HIOTo" opacity="1" fill-opacity="0" stroke="#000000" stroke-width="1" stroke-opacity="0"></use></g></g><g><use xlink:href="#a2Fb2NlOV" opacity="1" fill="#ffffff" fill-opacity="1"></use><g><use xlink:href="#a2Fb2NlOV" opacity="1" fill-opacity="0" stroke="#000000" stroke-width="1" stroke-opacity="0"></use></g></g><g><use xlink:href="#bKyviAoN" opacity="1" fill="#ffffff" fill-opacity="1"></use><g><use xlink:href="#bKyviAoN" opacity="1" fill-opacity="0" stroke="#000000" stroke-width="1" stroke-opacity="0"></use></g></g><g><use xlink:href="#b1gQ9Nz6wH" opacity="1" fill="#ffffff" fill-opacity="1"></use><g><use xlink:href="#b1gQ9Nz6wH" opacity="1" fill-opacity="0" stroke="#000000" stroke-width="1" stroke-opacity="0"></use></g></g><g><use xlink:href="#e8HEj0BS9" opacity="1" fill="#ffffff" fill-opacity="1"></use><g><use xlink:href="#e8HEj0BS9" opacity="1" fill-opacity="0" stroke="#000000" stroke-width="1" stroke-opacity="0"></use></g></g></g></g></svg>