<?xml version="1.0" encoding="UTF-8" standalone="no"?>
<!DOCTYPE svg PUBLIC "-//W3C//DTD SVG 1.1//EN" "http://www.w3.org/Graphics/SVG/1.1/DTD/svg11.dtd">
<svg version="1.1" xmlns="http://www.w3.org/2000/svg" xmlns:xlink="http://www.w3.org/1999/xlink" preserveAspectRatio="xMidYMid meet" viewBox="0 0 640 640" width="40" height="40"><defs><path d="M587.97 522.32C587.97 503.95 587.97 493.75 587.97 491.71C599.03 491.51 609.37 490.46 618.06 484.94C630.02 477.34 635.59 463.29 635.59 440.73C635.59 415.64 626.57 386.41 613.37 365.94C630.56 349.92 640 328.87 640 306.3C640 264.14 605.74 227.96 560.22 221.91C553.53 209.31 542.72 198.88 529.42 192.03C524.05 148.9 484.42 116.5 436.74 116.5C424.37 116.5 412.42 118.68 401.14 122.95C391.45 106.68 381.38 98.69 370.67 98.69C359.81 98.69 349.76 106.78 339.95 123.42C332.16 136.64 324.5 155.38 317.8 177.61C313.2 192.9 309.21 209.33 305.91 226.22C289.3 217.29 270.52 212.61 250.93 212.61C245.19 212.61 239.52 213.02 233.97 213.82C233.97 207.34 233.97 155.49 233.97 149.01C233.97 120.3 214.14 94.43 184.63 84.64C179.76 83.03 174.38 85.32 172.62 89.77C170.85 94.22 173.36 99.14 178.23 100.75C200.36 108.09 215.22 127.48 215.22 149.01C215.22 155.92 215.22 211.21 215.22 218.12C197.1 223.88 180.95 233.92 168.45 247.16C168.45 246.23 168.45 241.56 168.45 233.16C179.26 223.28 185.27 217.79 186.47 216.7C190.13 213.35 190.13 207.92 186.47 204.58C182.81 201.23 176.87 201.23 173.21 204.58C172.9 204.87 171.31 206.32 168.45 208.93C168.45 177.59 168.45 160.18 168.45 156.7C168.45 151.96 164.26 148.13 159.08 148.13C153.9 148.13 149.7 151.96 149.7 156.7C149.7 157.55 149.7 161.82 149.7 169.51C144.03 164.32 140.88 161.44 140.25 160.87C136.59 157.52 130.65 157.52 126.99 160.87C123.33 164.21 123.33 169.64 126.99 172.99C128.51 174.37 136.08 181.29 149.7 193.75C149.7 233.62 149.7 255.78 149.7 260.21C136.03 242.19 119.95 228.93 102.93 227.31C102.93 219.48 102.93 156.84 102.93 149.01C102.93 127.56 117.73 108.19 139.75 100.81C144.61 99.18 147.11 94.25 145.32 89.81C143.54 85.37 138.16 83.09 133.29 84.71C103.92 94.56 84.18 120.4 84.18 149.01C84.18 157.14 84.18 222.2 84.18 230.33C66.1 237.75 47.6 257.83 31.69 287.91C12.26 324.63 0.66 369.7 0.66 408.45C0.66 448.14 10 472.55 30.04 485.28C46.49 495.73 67.54 496.67 90.06 496.74C90.06 498.45 90.06 506.97 90.06 522.32C41.65 522.32 14.75 522.32 9.37 522.32C4.2 522.32 0 526.15 0 530.89C0 535.62 4.2 539.46 9.37 539.46C71.43 539.46 567.9 539.46 629.96 539.46C635.14 539.46 639.34 535.62 639.34 530.89C639.34 526.15 635.14 522.32 629.96 522.32C624.37 522.32 610.37 522.32 587.97 522.32ZM198.64 478.97C198.64 481.86 198.64 496.31 198.64 522.32L168.45 522.32C168.45 500.26 168.45 488 168.45 485.55C171.9 483.4 175.13 480.83 178.11 477.78C184.65 478.68 191.54 478.91 198.64 478.97ZM217.39 478.97C225.83 478.91 233.97 478.59 241.55 477.2C241.55 480.21 241.55 495.25 241.55 522.32L217.39 522.32C217.39 499.2 217.39 484.75 217.39 478.97ZM347.14 442.73C335.34 449.59 321.65 453.27 307.27 453.27C297.09 453.27 287.31 451.44 278.11 447.85C281.72 438.28 283.46 426.28 283.46 411.51C283.46 410.05 283.43 408.58 283.38 407.11C289.88 405.26 296.13 402.85 302.12 399.93C305.46 411.83 310.08 420.89 316.09 427.59C324.96 437.49 335.76 441.28 347.14 442.73ZM260.7 470.12C263.86 468.11 266.67 465.73 269.15 462.98C280.31 467.56 292.16 470.04 304.48 470.37C304.48 473.83 304.48 491.15 304.48 522.32L260.3 522.32C260.52 494.48 260.65 477.08 260.7 470.12ZM323.23 469.15C337.01 467 349.94 462.08 361.3 454.67C361.3 459.18 361.3 481.73 361.3 522.32L323.23 522.32C323.23 493.96 323.23 476.24 323.23 469.15ZM380.05 443.6C387.36 443.5 394.65 443.08 401.6 441.4C401.6 446.8 401.6 473.77 401.6 522.32L380.05 522.32C380.05 480.33 380.05 454.1 380.05 443.6ZM440.81 522.32L420.35 522.32C420.35 468.31 420.35 438.3 420.35 432.3C422.04 430.91 423.68 429.35 425.26 427.59C427.12 425.51 428.85 423.2 430.45 420.66C433.47 424.81 436.93 429.14 440.81 432.56C440.81 444.53 440.81 474.45 440.81 522.32ZM459.56 444.08C466.96 447.43 475.01 449.68 483.44 450.64C483.44 455.42 483.44 479.31 483.44 522.32L459.56 522.32C459.56 480.59 459.56 454.51 459.56 444.08ZM521.72 445.88C522.54 465.45 528.12 477.94 539.14 484.94C547.83 490.46 558.17 491.55 569.22 491.73C569.22 493.77 569.22 503.97 569.22 522.31L502.19 522.31L502.19 450.64C511.05 449.06 517.57 447.47 521.72 445.88ZM587.97 474.59C587.97 473.03 587.97 460.61 587.97 459.05C588.15 458.92 588.32 458.78 588.49 458.63C589.98 457.27 601.89 446.38 603.37 445.02C607.03 441.67 607.03 436.25 603.37 432.9C599.71 429.56 593.78 429.56 590.11 432.9C589.97 433.03 589.26 433.69 587.97 434.86C587.97 420.19 587.97 412.03 587.97 410.4C587.97 405.67 583.78 401.83 578.6 401.83C573.42 401.83 569.22 405.67 569.22 410.4C569.22 416.82 569.22 468.17 569.22 474.59C561.15 474.43 554.34 473.73 549.83 470.86C543.46 466.81 540.36 456.96 540.36 440.73C540.36 421.97 546 400.11 555.45 382.24C565.07 364.06 574.75 357.29 578.6 357.29C582.44 357.29 592.13 364.06 601.75 382.24C611.2 400.11 616.84 421.97 616.84 440.73C616.84 456.95 613.74 466.81 607.36 470.86C602.85 473.72 596.03 474.43 587.97 474.59ZM602.15 351.83C594.81 344.54 586.77 340.15 578.6 340.15C574.92 340.15 571.28 341.03 567.71 342.67C567.71 333.58 567.71 260.82 567.71 251.73C567.71 247.95 567.36 244.25 566.71 240.64C598.4 248.72 621.25 275.52 621.25 306.3C621.25 323.35 614.5 339.31 602.15 351.83ZM492.81 200.4C523.77 200.4 548.96 223.43 548.96 251.73C548.96 262.42 548.96 348 548.96 358.7C535.67 375.65 525.53 401.73 522.52 426.28C522.48 426.31 522.43 426.33 522.39 426.35C516.2 429.87 509.34 432.2 502.19 433.3C502.19 429.95 502.19 413.19 502.19 383.03C513 373.15 519 367.66 520.2 366.56C523.87 363.22 523.87 357.79 520.2 354.44C516.54 351.1 510.61 351.1 506.95 354.44C506.63 354.73 505.04 356.18 502.19 358.79C502.19 327.45 502.19 310.04 502.19 306.56C502.19 301.83 497.99 297.99 492.81 297.99C487.64 297.99 483.44 301.83 483.44 306.56C483.44 307.42 483.44 311.69 483.44 319.38C477.77 314.19 474.62 311.31 473.99 310.73C470.32 307.39 464.39 307.39 460.73 310.73C457.07 314.08 457.07 319.51 460.73 322.85C462.24 324.24 469.81 331.16 483.44 343.62C483.44 397.44 483.44 427.34 483.44 433.32C463.25 430.22 446.23 417.22 439.56 399.04C439.55 398.99 439.52 398.95 439.51 398.91C444.01 382.33 446.12 360.33 446.12 331.55C446.12 302.53 443.21 270.7 437.92 239.76C444.62 217.63 467.66 200.4 492.81 200.4ZM397.31 158.18C399.03 162.65 404.37 165 409.27 163.43C414.15 161.86 416.72 156.96 415 152.5C413.06 147.45 411.11 142.78 409.15 138.46C417.9 135.26 427.16 133.64 436.74 133.64C471.41 133.64 500.76 155.07 509 184.89C503.78 183.84 498.37 183.26 492.81 183.26C468.46 183.26 446.15 194.13 432.33 211.38C430.91 205.07 429.41 198.84 427.8 192.75C426.59 188.15 421.52 185.31 416.49 186.42C411.46 187.53 408.36 192.16 409.57 196.77C420.88 239.61 427.36 288.74 427.36 331.55C427.36 376.39 421.93 404.25 410.75 416.73C403.56 424.75 394.4 426.21 380.05 426.45C380.05 423.52 380.05 408.9 380.05 382.58C398.29 365.9 408.43 356.63 410.46 354.78C414.12 351.43 414.12 346 410.46 342.66C406.8 339.31 400.86 339.31 397.2 342.66C396.06 343.7 390.34 348.93 380.05 358.34C380.05 315.48 380.05 291.68 380.05 286.92C380.05 282.18 375.85 278.35 370.67 278.35C365.49 278.35 361.3 282.18 361.3 286.92C361.3 288.11 361.3 294.08 361.3 304.83C353.3 297.52 348.85 293.45 347.96 292.64C344.3 289.3 338.36 289.3 334.7 292.64C331.04 295.99 331.04 301.42 334.7 304.76C337.36 307.19 358.61 326.62 361.27 329.04C361.28 329.05 361.29 329.06 361.3 329.07C361.3 338.81 361.3 416.71 361.3 426.45C346.94 426.21 337.78 424.75 330.59 416.73C319.41 404.25 313.98 376.39 313.98 331.55C313.98 283.55 322.17 227.7 335.88 182.16C352.3 127.63 367.73 115.83 370.67 115.83C372.86 115.83 383.79 123.02 397.31 158.18ZM302.61 244.65C297.85 273.97 295.23 304.02 295.23 331.55C295.23 351.53 296.25 368.24 298.37 382.14C293.17 385.09 287.69 387.54 281.97 389.45C278.95 366.37 271.42 342.5 260.3 321.47C260.3 320.09 260.3 313.16 260.3 300.7C272.16 289.86 278.74 283.84 280.06 282.64C283.72 279.29 283.72 273.86 280.06 270.52C276.4 267.17 270.46 267.17 266.8 270.52C266.37 270.91 264.2 272.89 260.3 276.46C260.3 270.52 260.3 267.23 260.3 266.57C260.3 261.83 256.11 258 250.93 258C245.75 258 241.55 261.83 241.55 266.57C241.55 269.3 241.55 291.16 241.55 293.9C230.64 281.83 219.06 275.27 208.02 275.27C194.75 275.27 182.36 284.16 171.75 297.02C169.86 293.06 167.84 289.12 165.73 285.24C178.25 252.05 212.49 229.75 250.93 229.75C269.62 229.75 287.43 234.89 302.61 244.65ZM19.41 408.45C19.41 372.15 30.31 329.88 48.57 295.37C64.99 264.33 84.96 244.27 99.44 244.27C114.57 244.27 140.03 268.5 159.48 314.8C153.6 324.85 148.64 335.72 144.86 346.04C143.22 350.53 145.87 355.39 150.78 356.89C155.69 358.39 161 355.97 162.64 351.48C176 314.99 196.59 292.41 208.02 292.41C215.76 292.41 230.14 303.83 243.41 328.91C256.75 354.12 264.71 385 264.71 411.51C264.71 435.19 259.9 449.75 250 456.04C242.23 460.97 230.78 461.71 217.39 461.83C217.39 460.08 217.39 451.35 217.39 435.62C235.64 418.94 245.78 409.67 247.81 407.82C251.47 404.47 251.47 399.05 247.81 395.7C244.14 392.35 238.21 392.35 234.55 395.7C233.4 396.75 227.69 401.97 217.39 411.38C217.39 386.21 217.39 372.22 217.39 369.43C217.39 364.69 213.19 360.86 208.02 360.86C202.84 360.86 198.64 364.69 198.64 369.43C198.64 378.67 198.64 452.59 198.64 461.83C185.25 461.72 173.8 460.97 166.03 456.04C156.14 449.76 151.32 435.19 151.32 411.51C151.32 404.58 151.85 397.32 152.9 389.93C153.57 385.23 149.94 380.94 144.81 380.33C139.67 379.73 134.97 383.03 134.31 387.73C133.16 395.85 132.57 403.85 132.57 411.51C132.57 441.63 139.81 460.26 155.33 470.12C156.1 470.6 156.87 471.05 157.66 471.48C145.72 478.81 128.97 479.53 108.81 479.6C108.81 473.64 108.81 443.81 108.81 390.12C117.45 382.22 122.25 377.84 123.21 376.96C126.87 373.61 126.87 368.19 123.21 364.84C119.55 361.49 113.61 361.49 109.95 364.84C109.87 364.91 109.49 365.25 108.81 365.88C108.81 351.72 108.81 343.86 108.81 342.29C108.81 337.55 104.61 333.72 99.44 333.72C94.26 333.72 90.06 337.55 90.06 342.29C90.06 347.17 90.06 371.61 90.06 415.6C82.98 409.12 79.05 405.52 78.26 404.81C74.6 401.46 68.66 401.46 65 404.81C61.34 408.15 61.34 413.58 65 416.93C67.37 419.1 86.36 436.45 88.74 438.62C89.15 439 89.6 439.33 90.06 439.62C90.06 443.62 90.06 475.61 90.06 479.6C69.97 479.53 52.68 478.78 40.74 471.2C31.58 465.39 19.41 452.56 19.41 408.45ZM108.81 496.74C123.28 496.69 137.23 496.27 149.7 493.2C149.7 495.14 149.7 504.85 149.7 522.32L108.81 522.32C108.81 508.68 108.81 500.15 108.81 496.74Z" id="cSD2JNQlY"></path></defs><g><g><g><use xlink:href="#cSD2JNQlY" opacity="1" fill="#ffffff" fill-opacity="1"></use><g><use xlink:href="#cSD2JNQlY" opacity="1" fill-opacity="0" stroke="#000000" stroke-width="1" stroke-opacity="0"></use></g></g></g></g></svg>