<?xml version="1.0" encoding="UTF-8" standalone="no"?>
<!DOCTYPE svg PUBLIC "-//W3C//DTD SVG 1.1//EN" "http://www.w3.org/Graphics/SVG/1.1/DTD/svg11.dtd">
<svg version="1.1" xmlns="http://www.w3.org/2000/svg" xmlns:xlink="http://www.w3.org/1999/xlink" preserveAspectRatio="xMidYMid meet" viewBox="0 0 640 640" width="40" height="40"><defs><path d="M0 320C0 496.73 143.28 640 320 640C496.72 640 640 496.73 640 320C640 143.27 496.72 0 320 0C143.28 0 0 143.27 0 320ZM507.66 515.21C470.13 515.21 169.88 515.21 132.35 515.21C127.71 515.21 123.95 511.45 123.95 506.82C123.95 483.08 123.95 293.21 123.95 269.48C123.95 267.06 124.99 264.74 126.81 263.16C145.57 246.71 295.69 115.09 314.46 98.63C317.63 95.87 322.37 95.87 325.54 98.63C344.31 115.09 494.43 246.71 513.19 263.16C514.99 264.75 516.03 267.06 516.03 269.48C516.03 285.3 516.03 364.41 516.03 506.82L516.06 506.82C513.55 512.41 510.75 515.21 507.66 515.21ZM560.35 267.86C544.33 253.82 464.21 183.6 320 57.2C175.81 183.6 95.7 253.83 79.68 267.88C74.43 272.48 66.49 271.94 61.9 266.71C57.32 261.47 57.83 253.5 63.06 248.93C87.93 227.14 286.84 52.76 311.71 30.97C316.47 26.79 323.57 26.79 328.32 30.97C353.18 52.76 552.11 227.14 576.97 248.93C582.2 253.51 582.72 261.48 578.14 266.71C575.63 269.55 572.13 270.99 568.63 270.99C565.7 270.99 562.74 269.97 560.35 267.86Z" id="bZo5HH0a"></path><path d="M355.01 326.21C355.01 306.93 339.29 291.23 320.01 291.23C300.72 291.23 285.02 306.92 285.02 326.21C285.02 341.04 294.54 354.27 308.72 359.13C310.84 359.86 312.57 361.39 313.54 363.38C314.52 365.4 314.67 367.69 313.95 369.82C312.25 374.78 303.73 399.63 288.38 444.36L351.64 444.36C336.3 399.63 327.78 374.78 326.07 369.82C325.35 367.69 325.49 365.4 326.48 363.38C327.44 361.38 329.2 359.86 331.29 359.13C345.48 354.27 355.01 341.04 355.01 326.21Z" id="cVKC4BO20"></path></defs><g><g><g><use xlink:href="#bZo5HH0a" opacity="1" fill="#ffffff" fill-opacity="1"></use><g><use xlink:href="#bZo5HH0a" opacity="1" fill-opacity="0" stroke="#000000" stroke-width="1" stroke-opacity="0"></use></g></g><g><use xlink:href="#cVKC4BO20" opacity="1" fill="#000000" fill-opacity="0"></use><g><use xlink:href="#cVKC4BO20" opacity="1" fill-opacity="0" stroke="#000000" stroke-width="1" stroke-opacity="0"></use></g></g></g></g></svg>