<?xml version="1.0" encoding="UTF-8" standalone="no"?>
<!DOCTYPE svg PUBLIC "-//W3C//DTD SVG 1.1//EN" "http://www.w3.org/Graphics/SVG/1.1/DTD/svg11.dtd">
<svg version="1.1" xmlns="http://www.w3.org/2000/svg" xmlns:xlink="http://www.w3.org/1999/xlink" preserveAspectRatio="xMidYMid meet" viewBox="0 0 640 640" width="25" height="25"><defs><path d="M200 0C89.56 0 0 89.56 0 200C0 224 0 416 0 440C0 550.44 89.56 640 200 640C224 640 416 640 440 640C550.44 640 640 550.44 640 440C640 416 640 224 640 200C640 89.56 550.44 0 440 0C392 0 224 0 200 0ZM440 580C416 580 224 580 200 580C122.8 580 60 517.2 60 440C60 416 60 224 60 200C60 122.8 122.8 60 200 60C224 60 416 60 440 60C517.2 60 580 122.8 580 200C580 216 580 296 580 440C538.13 533.33 491.47 580 440 580Z" id="b9BPa39X6"></path><path d="M160 320C160 408.36 231.64 480 320 480C408.36 480 480 408.36 480 320C480 231.64 408.36 160 320 160C231.64 160 160 231.64 160 320ZM220 320C220 264.84 264.88 220 320 220C375.12 220 420 264.84 420 320C420 375.12 375.12 420 320 420C264.88 420 220 375.12 220 320Z" id="bNSvHUpt"></path><path d="M492 126.68C480.23 126.68 470.68 136.23 470.68 148C470.68 159.77 480.23 169.32 492 169.32C503.77 169.32 513.32 159.77 513.32 148C513.32 136.23 503.77 126.68 492 126.68Z" id="a2TWHIIEGK"></path></defs><g><g><g><use xlink:href="#b9BPa39X6" opacity="1" fill="#ffffff" fill-opacity="1"></use><g><use xlink:href="#b9BPa39X6" opacity="1" fill-opacity="0" stroke="#000000" stroke-width="1" stroke-opacity="0"></use></g></g><g><use xlink:href="#bNSvHUpt" opacity="1" fill="#ffffff" fill-opacity="1"></use><g><use xlink:href="#bNSvHUpt" opacity="1" fill-opacity="0" stroke="#000000" stroke-width="1" stroke-opacity="0"></use></g></g><g><use xlink:href="#a2TWHIIEGK" opacity="1" fill="#ffffff" fill-opacity="1"></use><g><use xlink:href="#a2TWHIIEGK" opacity="1" fill-opacity="0" stroke="#000000" stroke-width="1" stroke-opacity="0"></use></g></g></g></g></svg>