<?xml version="1.0" encoding="UTF-8" standalone="no"?>
<!DOCTYPE svg PUBLIC "-//W3C//DTD SVG 1.1//EN" "http://www.w3.org/Graphics/SVG/1.1/DTD/svg11.dtd">
<svg version="1.1" xmlns="http://www.w3.org/2000/svg" xmlns:xlink="http://www.w3.org/1999/xlink" preserveAspectRatio="xMidYMid meet" viewBox="0 0 640 640" width="40" height="40"><defs><path d="M16.8 330.05C7.53 330.05 0 321.2 0 310.29C0 299.39 7.53 290.54 16.8 290.54C53.75 290.54 349.4 290.54 386.36 290.54C395.63 290.54 403.16 299.39 403.16 310.29C403.16 321.2 395.63 330.05 386.36 330.05C312.45 330.05 53.75 330.05 16.8 330.05Z" id="c57gULAiW7"></path><path d="M26.67 178.6C11.95 178.6 0 169.75 0 158.84C0 147.94 11.95 139.09 26.67 139.09C85.33 139.09 554.67 139.09 613.33 139.09C628.05 139.09 640 147.94 640 158.84C640 169.75 628.05 178.6 613.33 178.6C496 178.6 85.33 178.6 26.67 178.6Z" id="angvQoFNm"></path><path d="M26.67 481.5C11.95 481.5 0 472.65 0 461.74C0 450.84 11.95 441.99 26.67 441.99C85.33 441.99 554.67 441.99 613.33 441.99C628.05 441.99 640 450.84 640 461.74C640 472.65 628.05 481.5 613.33 481.5C496 481.5 85.33 481.5 26.67 481.5Z" id="awhLpdNF6"></path></defs><g><g><g><use xlink:href="#c57gULAiW7" opacity="1" fill="#ffffff" fill-opacity="1"></use><g><use xlink:href="#c57gULAiW7" opacity="1" fill-opacity="0" stroke="#000000" stroke-width="1" stroke-opacity="0"></use></g></g><g><use xlink:href="#angvQoFNm" opacity="1" fill="#ffffff" fill-opacity="1"></use><g><use xlink:href="#angvQoFNm" opacity="1" fill-opacity="0" stroke="#000000" stroke-width="1" stroke-opacity="0"></use></g></g><g><use xlink:href="#awhLpdNF6" opacity="1" fill="#ffffff" fill-opacity="1"></use><g><use xlink:href="#awhLpdNF6" opacity="1" fill-opacity="0" stroke="#000000" stroke-width="1" stroke-opacity="0"></use></g></g></g></g></svg>