<?xml version="1.0" encoding="UTF-8" standalone="no"?>
<!DOCTYPE svg PUBLIC "-//W3C//DTD SVG 1.1//EN" "http://www.w3.org/Graphics/SVG/1.1/DTD/svg11.dtd">
<svg version="1.1" xmlns="http://www.w3.org/2000/svg" xmlns:xlink="http://www.w3.org/1999/xlink" preserveAspectRatio="xMidYMid meet" viewBox="0 0 640 640" width="640" height="640"><defs><path d="M21.33 374.53C42.67 357.78 85.33 324.89 128 317.64C170.67 310.67 213.33 329.33 256 343.69C298.67 357.78 341.33 367.56 384 372.13C426.67 376.89 469.33 376.89 512 367.42C554.67 357.78 597.33 339.11 618.67 329.47C620.09 328.84 627.2 325.68 640 320L640 391.11C627.2 391.11 620.09 391.11 618.67 391.11C597.33 391.11 554.67 391.11 512 391.11C469.33 391.11 426.67 391.11 384 391.11C341.33 391.11 298.67 391.11 256 391.11C213.33 391.11 170.67 391.11 128 391.11C85.33 391.11 42.67 391.11 21.33 391.11C19.91 391.11 12.8 391.11 0 391.11C12.8 381.16 19.91 375.64 21.33 374.53Z" id="b1zlsUAy6f"></path></defs><g><g><g><use xlink:href="#b1zlsUAy6f" opacity="1" fill="#ffffff" fill-opacity="1"></use><g><use xlink:href="#b1zlsUAy6f" opacity="1" fill-opacity="0" stroke="#000000" stroke-width="1" stroke-opacity="0"></use></g></g></g></g></svg>